<svg xmlns="http://www.w3.org/2000/svg" width="48" height="48" viewBox="0 0 48 48" fill="none">
  <defs>
    <linearGradient id="cp" x1="4" y1="6" x2="44" y2="42" gradientUnits="userSpaceOnUse">
      <stop stop-color="#38bdf8"/>
      <stop offset="1" stop-color="#0284c7"/>
    </linearGradient>
  </defs>
  <!-- Linux window (back-left) -->
  <rect x="2" y="10" width="22" height="16" rx="3" fill="url(#cp)" opacity="0.1"/>
  <rect x="2" y="10" width="22" height="16" rx="3" stroke="url(#cp)" stroke-width="1.2" fill="none" opacity="0.5"/>
  <text x="6" y="16" font-size="4" font-weight="700" fill="#38bdf8" opacity="0.6" font-family="monospace">$_</text>
  <rect x="6" y="19" width="10" height="1.5" rx="0.75" fill="#38bdf8" opacity="0.25"/>
  <rect x="6" y="22" width="7" height="1.5" rx="0.75" fill="#38bdf8" opacity="0.15"/>
  <!-- macOS window (center-top) -->
  <rect x="13" y="4" width="22" height="16" rx="3" fill="url(#cp)" opacity="0.15"/>
  <rect x="13" y="4" width="22" height="16" rx="3" stroke="url(#cp)" stroke-width="1.2" fill="none" opacity="0.65"/>
  <circle cx="17" cy="8" r="1.3" fill="#ed8796" opacity="0.7"/>
  <circle cx="21" cy="8" r="1.3" fill="#eed49f" opacity="0.7"/>
  <circle cx="25" cy="8" r="1.3" fill="#a6da95" opacity="0.7"/>
  <rect x="17" y="12" width="12" height="1.5" rx="0.75" fill="#38bdf8" opacity="0.3"/>
  <rect x="17" y="15" width="8" height="1.5" rx="0.75" fill="#38bdf8" opacity="0.2"/>
  <!-- Windows window (front-right) -->
  <rect x="24" y="18" width="22" height="16" rx="3" fill="url(#cp)" opacity="0.12"/>
  <rect x="24" y="18" width="22" height="16" rx="3" stroke="url(#cp)" stroke-width="1.3" fill="none"/>
  <!-- Windows title bar buttons -->
  <rect x="38" y="21" width="2.5" height="1.5" rx="0.5" fill="#38bdf8" opacity="0.4"/>
  <rect x="41.5" y="21" width="2.5" height="1.5" rx="0.5" fill="#38bdf8" opacity="0.4"/>
  <rect x="28" y="26" width="13" height="1.5" rx="0.75" fill="#38bdf8" opacity="0.35"/>
  <rect x="28" y="29" width="9" height="1.5" rx="0.75" fill="#38bdf8" opacity="0.2"/>
  <!-- Connecting arc (unifying element) -->
  <path d="M14 38c4-4 16-4 20 0" stroke="url(#cp)" stroke-width="1.5" stroke-linecap="round" fill="none" opacity="0.4"/>
  <circle cx="24" cy="40" r="3" fill="url(#cp)" opacity="0.2"/>
  <circle cx="24" cy="40" r="3" stroke="url(#cp)" stroke-width="1.2" fill="none" opacity="0.5"/>
  <path d="M22.5 40l1.5 1.5 2.5-3" stroke="#38bdf8" stroke-width="1.2" stroke-linecap="round" stroke-linejoin="round" fill="none" opacity="0.7"/>
</svg>
