<svg xmlns="http://www.w3.org/2000/svg" width="48" height="48" viewBox="0 0 48 48" fill="none">
  <defs>
    <linearGradient id="sd-main" x1="4" y1="4" x2="44" y2="44" gradientUnits="userSpaceOnUse">
      <stop stop-color="#22d3ee"/>
      <stop offset="1" stop-color="#0891b2"/>
    </linearGradient>
    <linearGradient id="sd-sync" x1="30" y1="28" x2="46" y2="44" gradientUnits="userSpaceOnUse">
      <stop stop-color="#34d399"/>
      <stop offset="1" stop-color="#059669"/>
    </linearGradient>
  </defs>
  <!-- Subtitle file -->
  <rect x="4" y="3" width="26" height="34" rx="3.5" fill="url(#sd-main)" opacity="0.12"/>
  <rect x="4" y="3" width="26" height="34" rx="3.5" stroke="url(#sd-main)" stroke-width="1.4" fill="none"/>
  <!-- SRT-style timing line -->
  <rect x="8.5" y="10" width="10" height="2" rx="1" fill="#22d3ee" opacity="0.35"/>
  <rect x="20" y="10" width="3" height="2" rx="1" fill="#22d3ee" opacity="0.25"/>
  <!-- Subtitle text lines -->
  <rect x="8.5" y="15" width="17" height="2.5" rx="1.25" fill="#22d3ee" opacity="0.6"/>
  <rect x="8.5" y="20" width="12" height="2.5" rx="1.25" fill="#22d3ee" opacity="0.4"/>
  <!-- Divider -->
  <line x1="8.5" y1="25.5" x2="26" y2="25.5" stroke="#22d3ee" stroke-width="0.6" opacity="0.2"/>
  <!-- Second block timing -->
  <rect x="8.5" y="28" width="10" height="2" rx="1" fill="#22d3ee" opacity="0.35"/>
  <!-- Second block text -->
  <rect x="8.5" y="32.5" width="14" height="2.5" rx="1.25" fill="#22d3ee" opacity="0.4"/>
  <!-- Download arrow -->
  <line x1="38" y1="6" x2="38" y2="20" stroke="url(#sd-main)" stroke-width="2.5" stroke-linecap="round"/>
  <path d="M33 16.5l5 5.5 5-5.5" stroke="url(#sd-main)" stroke-width="2.5" stroke-linecap="round" stroke-linejoin="round" fill="none"/>
  <!-- Sync arrows (circular) -->
  <path d="M35 35a6 6 0 0 1 8.5-1.5" stroke="url(#sd-sync)" stroke-width="1.8" stroke-linecap="round" fill="none"/>
  <path d="M44.5 35.5l-1-2.8-2.8 1" stroke="url(#sd-sync)" stroke-width="1.5" stroke-linecap="round" stroke-linejoin="round" fill="none"/>
  <path d="M43.5 41a6 6 0 0 1-8.5 1.5" stroke="url(#sd-sync)" stroke-width="1.8" stroke-linecap="round" fill="none"/>
  <path d="M34 40.5l1 2.8 2.8-1" stroke="url(#sd-sync)" stroke-width="1.5" stroke-linecap="round" stroke-linejoin="round" fill="none"/>
</svg>
